<?xml version="1.0" standalone="no"?>
<!DOCTYPE svg PUBLIC "-//W3C//DTD SVG 20010904//EN" "http://www.w3.org/TR/2001/REC-SVG-20010904/DTD/svg10.dtd">
<!-- Created using Karbon, part of Calligra: http://www.calligra.org/karbon -->
<svg xmlns="http://www.w3.org/2000/svg" xmlns:xlink="http://www.w3.org/1999/xlink" width="48pt" height="48pt">
<defs/>
<g id="layer0">
  <path id="path1711" transform="matrix(-1.14003 3.55975e-07 -3.55975e-07 -1.14003 55.3118 55.3118)" fill="none" stroke="#ffffff" stroke-width="7.12699940000" stroke-linecap="round" stroke-linejoin="round" display="none" d="M44.4055 22.2027C44.4055 34.4587 34.4587 44.4055 22.2027 44.4055C9.94683 44.4055 0 34.4587 0 22.2027C0 9.94683 9.94683 0 22.2027 0C34.4587 0 44.4055 9.94683 44.4055 22.2027Z"/>
  <path id="path1710" transform="matrix(-1.14003 3.55975e-07 -3.55975e-07 -1.14003 55.3118 55.3118)" fill="#ffffff" fill-rule="evenodd" stroke="#ffffff" stroke-width="2.74115300000" stroke-linecap="round" stroke-linejoin="round" display="none" d="M44.4055 22.2027C44.4055 34.4587 34.4587 44.4055 22.2027 44.4055C9.94683 44.4055 0 34.4587 0 22.2027C0 9.94683 9.94683 0 22.2027 0C34.4587 0 44.4055 9.94683 44.4055 22.2027Z"/>
  <path id="path1088" transform="matrix(0.960516 -2.15017e-07 2.52487e-07 0.554185 10.9433 16.4)" fill="#ffffff" fill-rule="evenodd" stroke="#ffffff" stroke-width="6.85315130000" stroke-linecap="round" stroke-linejoin="round" d="M39.6801 34.364L0 34.364L19.8401 0Z"/>
 </g>
</svg>
