<?xml version="1.0" encoding="UTF-8" standalone="no"?>
<!-- Created using Karbon, part of Calligra: http://www.calligra.org/karbon -->

<svg
   xmlns:dc="http://purl.org/dc/elements/1.1/"
   xmlns:cc="http://creativecommons.org/ns#"
   xmlns:rdf="http://www.w3.org/1999/02/22-rdf-syntax-ns#"
   xmlns:svg="http://www.w3.org/2000/svg"
   xmlns="http://www.w3.org/2000/svg"
   xmlns:sodipodi="http://sodipodi.sourceforge.net/DTD/sodipodi-0.dtd"
   xmlns:inkscape="http://www.inkscape.org/namespaces/inkscape"
   width="14.994164"
   height="14.994164"
   id="svg2"
   version="1.1"
   inkscape:version="0.48.4 r9939"
   sodipodi:docname="check-radio.svg">
  <metadata
     id="metadata11">
    <rdf:RDF>
      <cc:Work
         rdf:about="">
        <dc:format>image/svg+xml</dc:format>
        <dc:type
           rdf:resource="http://purl.org/dc/dcmitype/StillImage" />
      </cc:Work>
    </rdf:RDF>
  </metadata>
  <sodipodi:namedview
     pagecolor="#ffffff"
     bordercolor="#666666"
     borderopacity="1"
     objecttolerance="10"
     gridtolerance="10"
     guidetolerance="10"
     inkscape:pageopacity="0"
     inkscape:pageshadow="2"
     inkscape:window-width="1920"
     inkscape:window-height="1171"
     id="namedview9"
     showgrid="false"
     fit-margin-top="0"
     fit-margin-left="0"
     fit-margin-right="0"
     fit-margin-bottom="0"
     inkscape:zoom="11.125147"
     inkscape:cx="-18.000839"
     inkscape:cy="12.871738"
     inkscape:window-x="0"
     inkscape:window-y="0"
     inkscape:window-maximized="0"
     inkscape:current-layer="svg2" />
  <defs
     id="defs4" />
  <g
     id="g1315"
     transform="matrix(0.9,0,0,0.9,-19.502906,-19.502906)">
    <path
       id="path2075"
       transform="matrix(1.26641,0,0,1.26641,24.0654,24.0654)"
       display="none"
       d="M 9.3723,4.68615 C 9.3723,7.27291 7.27291,9.3723 4.68615,9.3723 2.09939,9.3723 0,7.27291 0,4.68615 0,2.0994 2.09939,0 4.68615,0 7.27291,0 9.3723,2.0994 9.3723,4.68615 z"
       inkscape:connector-curvature="0"
       style="fill:none;stroke:#ffffff;stroke-width:6.41575289;stroke-linecap:round;stroke-linejoin:round;display:none" />
    <path
       id="path2072"
       transform="matrix(1.26641,0,0,1.26641,24.0654,24.0654)"
       d="M 9.3723,4.68615 C 9.3723,7.27291 7.27291,9.3723 4.68615,9.3723 2.09939,9.3723 0,7.27291 0,4.68615 0,2.0994 2.09939,0 4.68615,0 7.27291,0 9.3723,2.0994 9.3723,4.68615 z"
       inkscape:connector-curvature="0"
       style="fill:#000000;stroke:#000000;stroke-width:2.46759629;stroke-linecap:round;stroke-linejoin:round" />
  </g>
</svg>
